<svg xmlns="http://www.w3.org/2000/svg" viewBox="0 0 336.79 284.31"><defs><style>.cls-1{isolation:isolate;}.cls-13,.cls-2,.cls-5,.cls-7{fill:#6795ff;}.cls-2{opacity:0.2;}.cls-10,.cls-12,.cls-13,.cls-14,.cls-2,.cls-4{mix-blend-mode:multiply;}.cls-12,.cls-3{fill:#2f539b;}.cls-4{fill:#3db3ee;}.cls-6{fill:#fff;}.cls-12,.cls-13,.cls-14,.cls-7{opacity:0.5;}.cls-8{fill:#7aa5fc;}.cls-10,.cls-9{fill:#db9c94;}.cls-11{fill:#231f20;}.cls-15{fill:#1e1e1e;}</style></defs><g class="cls-1"><g id="Capa_2" data-name="Capa 2"><g id="Capa_1-2" data-name="Capa 1"><ellipse class="cls-2" cx="169.86" cy="240.18" rx="127.54" ry="6.38"/><path class="cls-3" d="M203.31,230.88v6H136.42v-6A47.18,47.18,0,0,0,147,214.09a51.17,51.17,0,0,0,3.19-13.2h39.3a51.48,51.48,0,0,0,3.2,13.2A47,47,0,0,0,203.31,230.88Z"/><path class="cls-4" d="M192.71,214.09H147a51.17,51.17,0,0,0,3.19-13.2h39.3A51.48,51.48,0,0,0,192.71,214.09Z"/><rect class="cls-5" x="42.33" y="33.75" width="255.06" height="174.32" rx="9"/><rect class="cls-6" x="48.63" y="40.05" width="242.46" height="143.73" rx="2.7"/><path class="cls-3" d="M291.09,56.93V42.75a2.69,2.69,0,0,0-2.69-2.7H51.33a2.7,2.7,0,0,0-2.7,2.7V56.93Z"/><path class="cls-5" d="M220.24,238.53c-.49-5.31-3.6-9.45-7.35-9.45H126.83c-3.75,0-6.86,4.14-7.35,9.45Z"/><path class="cls-6" d="M261.49,48.49a2.45,2.45,0,1,1-2.44-2.44A2.44,2.44,0,0,1,261.49,48.49Z"/><path class="cls-6" d="M271.79,48.49a2.44,2.44,0,1,1-2.44-2.44A2.44,2.44,0,0,1,271.79,48.49Z"/><path class="cls-6" d="M282.1,48.49a2.44,2.44,0,1,1-2.44-2.44A2.44,2.44,0,0,1,282.1,48.49Z"/><rect class="cls-3" x="57.63" y="75.04" width="102.42" height="25.91"/><rect class="cls-7" x="57.63" y="107.07" width="49.93" height="10.27"/><rect class="cls-7" x="57.63" y="124.21" width="102.42" height="3.56"/><rect class="cls-7" x="57.63" y="132.15" width="102.42" height="3.56"/><rect class="cls-7" x="57.63" y="140.1" width="102.42" height="3.56"/><rect class="cls-7" x="57.63" y="148.05" width="102.42" height="3.56"/><rect class="cls-7" x="57.63" y="155.99" width="102.42" height="3.56"/><rect class="cls-7" x="57.63" y="163.94" width="102.42" height="3.56"/><rect class="cls-3" x="179.68" y="75.04" width="102.42" height="25.91"/><rect class="cls-7" x="179.68" y="107.07" width="49.93" height="10.27"/><rect class="cls-7" x="179.68" y="124.21" width="102.42" height="3.56"/><rect class="cls-7" x="179.68" y="132.15" width="102.42" height="3.56"/><rect class="cls-7" x="179.68" y="140.1" width="102.42" height="3.56"/><rect class="cls-7" x="179.68" y="148.05" width="102.42" height="3.56"/><rect class="cls-7" x="179.68" y="155.99" width="102.42" height="3.56"/><rect class="cls-7" x="179.68" y="163.94" width="102.42" height="3.56"/><ellipse class="cls-2" cx="58.02" cy="273.25" rx="58.02" ry="11.06"/><rect class="cls-8" x="113.02" y="46.05" width="48.49" height="48.49" rx="2"/><path class="cls-9" d="M116,80.93c-.23,1.42-2.44,3.07-2.91,3.47v8.12a4.14,4.14,0,0,1-1.34,1.09l-.52.78c-1.17,1.75-3.95,5.87-4,5.81s-5.63-6-5.63-6,1.93-1.83,3.42-3.44a9.36,9.36,0,0,0,1.66-2.14c.35-1.1,1.38-3.39,2-5s3.62-2.21,5.12-3.47S116.25,79.51,116,80.93Z"/><path class="cls-10" d="M111.24,94.39c-1.17,1.75-3.95,5.87-4,5.81s-5.63-6-5.63-6,1.93-1.83,3.42-3.44A33.58,33.58,0,0,0,111.24,94.39Z"/><path class="cls-11" d="M42.43,280.78c-3.13.63-7.27.08-8.93-3.62a10.41,10.41,0,0,1-.69-2.67,38.35,38.35,0,0,1,.22-9S44,262.9,44.21,264.32A30.62,30.62,0,0,0,46,273.27a11.29,11.29,0,0,1,.49,1.79C47.09,278.58,45.13,280.24,42.43,280.78Z"/><path class="cls-8" d="M42.43,280.78c-3.13.63-7.27.08-8.93-3.62a10.41,10.41,0,0,1-.69-2.67h0s1,4,6.44,3.46,6.11-1.13,7.19-2.89C47.09,278.58,45.13,280.24,42.43,280.78Z"/><path class="cls-11" d="M81,265.75v.14l-.12,2.37s-3.55,2.49-11.93,1.77c-9.57-.83-16.63-1.89-16.63-1.89s-.16-1.06-.23-2.61a19.72,19.72,0,0,1,1.14-8.14c1.89-4.38,12.06-3,12.06-3s2.36,4.85,7.32,6.27S80.93,263.47,81,265.75Z"/><path class="cls-8" d="M81,265.75v.14l-.12,2.37s-3.55,2.49-11.93,1.77c-9.57-.83-16.63-1.89-16.63-1.89s-.16-1.06-.23-2.61C56,266.23,69.2,268.23,81,265.75Z"/><path class="cls-3" d="M70.45,165.85s0,4.36-.21,10.66c-.14,5.49-.37,12.45-.74,19.27-.79,14.66-2.52,53.1-1.58,58.3,0,0,.79,1.1-2.67,2.83s-10.09,5.83-12.92,4.57-2.21-17.8-2.21-26.62c0-5.31-.23-14-.51-21.67-.19-5.08-.4-9.73-.59-12.68-.29-4.52,0-14.3.29-21.25,0-.84.06-1.64.09-2.38.14-3.19.25-5.34.25-5.34Z"/><path class="cls-12" d="M55.56,190.27c-.32,5.89-3.71,16.48-6,22.92-.19-5.08-.4-9.73-.59-12.68-.29-4.52,0-14.3.29-21.25,0-.84.06-1.64.09-2.38l5.45-.43S56,181.41,55.56,190.27Z"/><path class="cls-12" d="M70.45,165.85s0,4.36-.21,10.66a58.16,58.16,0,0,1-20.93,2.75c.17-4.44.34-7.72.34-7.72Z"/><path class="cls-3" d="M56.58,167s-.3,5.71-1,12.26a107.9,107.9,0,0,1-1.94,12c-2.21,9.29-6.78,20.63-7.56,25.2s-.32,14.18,0,20,.71,20.8.67,23.63c0,1,0,2.09,0,3a3.15,3.15,0,0,1-2.78,3.13c-2.53.3-6.28.8-9.12,1.4A3.15,3.15,0,0,1,31,265.18c-1-4.49-2.45-16.32-2.66-32.53-.27-21-.16-46.59,1.95-58.42a24.29,24.29,0,0,1,1.15-4.48C34.68,161.6,56.58,167,56.58,167Z"/><path class="cls-12" d="M56.58,167s-.3,5.71-1,12.26a48.37,48.37,0,0,1-25.2-5,24.29,24.29,0,0,1,1.15-4.48C34.68,161.6,56.58,167,56.58,167Z"/><path class="cls-8" d="M100.77,94.44,104.23,91S109,96.14,110.94,97l-2.68,4.22Z"/><path class="cls-5" d="M108.08,103.32c-3.55,4.3-10.46,12-16.68,14.64-5.08,2.17-11.73,3.51-16.45,4.26-3.48.55-5.92.78-5.92.78l-8.2-18.28,3.94-.94,1.16.1c2.94.26,11.1,1,19.72,1.47L98.77,94.29a3.26,3.26,0,0,1,4.56.34,29.6,29.6,0,0,0,4.17,4A3.28,3.28,0,0,1,108.08,103.32Z"/><path class="cls-13" d="M75,122.22c-3.48.55-5.92.78-5.92.78l-8.2-18.28,3.94-.94,1.16.1a72.63,72.63,0,0,1,6.64,8.17C74,114.32,74.66,118.84,75,122.22Z"/><path class="cls-5" d="M73.36,165.45c0,.7,0,1.33,0,1.85a3.77,3.77,0,0,1-1.85,3.17c-12.12,7.22-28.16,5.78-36.89,4.21-1.09-.2-2.06-.39-2.9-.58a3.75,3.75,0,0,1-2.91-4.2l0-.2c.27-1.94.66-4.75,1.15-8.58.85-6.73.38-15.46-.4-23-.22-2.16-.46-4.23-.71-6.12-1.08-8.33-8.5-17.11-8.81-17.48h0c5.51-5.51,15.6-9.3,15.6-9.3,16.38-4.25,29.14-1.41,29.14-1.41s5.2,7.72,6.46,12,0,16.54,1.26,28.67A196.41,196.41,0,0,1,73.36,165.45Z"/><path class="cls-8" d="M73.36,165.45c0,.7,0,1.33,0,1.85a3.77,3.77,0,0,1-1.85,3.17c-13.63,8.12-32.22,5.29-39.79,3.63a3.75,3.75,0,0,1-2.91-4.2l0-.2C34.38,171.08,54.24,174.9,73.36,165.45Z"/><path class="cls-13" d="M34.59,174.68c-1.09-.2-2.06-.39-2.9-.58a3.75,3.75,0,0,1-2.91-4.2l0-.2c.27-1.94.66-4.75,1.15-8.58.85-6.73.38-15.46-.4-23a38.21,38.21,0,0,1,2,8.52C31.89,153.18,34.35,167.14,34.59,174.68Z"/><path class="cls-9" d="M32.87,196.49a1.32,1.32,0,0,1-1.34,1.74c-1.81.15-4.88-1.15-6.7-3.41a13.11,13.11,0,0,1-2-9.12l.47-1.57L23,182.42l-.42-3.07,7.27-2.12,1,5.17.06.31a16.41,16.41,0,0,1,2.21,3.78c.65,1.95-.36,3.88.13,5.81a.85.85,0,0,1,0,.7c-.18.27-.59.23-.87.08a2.86,2.86,0,0,1-1.12-1.19,14.17,14.17,0,0,1-.6-1.31c-.16-.38-1.06-2.36-.77-2.75a3.6,3.6,0,0,0-.39,3.7,5.69,5.69,0,0,0,3.87,3C34.6,194.76,34.13,196.26,32.87,196.49Z"/><path class="cls-10" d="M30.84,182.4a18.91,18.91,0,0,1-7.81,0l-.42-3.07,7.27-2.12Z"/><path class="cls-8" d="M20.34,176.66l1.27,4.79s5.59.9,9.92-1.64L31,175.17Z"/><path class="cls-5" d="M28.49,178l-4.75.7a4,4,0,0,1-4.54-3.23c-1.7-12-2.83-39.26-1.85-48.28A65.07,65.07,0,0,1,19.1,117a11.44,11.44,0,0,1,.93-2.54h0c.22.26,7.73,9.09,8.81,17.48.44,3.41.89,7.38,1.19,11.47-.18,1.49-.34,2.87-.42,4.09a14.25,14.25,0,0,0,0,2.71C30,153.2,31.26,167.3,31.85,174A3.82,3.82,0,0,1,28.49,178Z"/><g class="cls-14"><path class="cls-3" d="M84.83,114.17a.18.18,0,0,1-.1,0,.23.23,0,0,1-.12-.31,14.14,14.14,0,0,0,.81-8.43l-.15-.57.5.31a8.07,8.07,0,0,1,3.46,5.93.24.24,0,0,1-.21.26.24.24,0,0,1-.26-.22A7.74,7.74,0,0,0,86,105.93,14.7,14.7,0,0,1,85,114,.23.23,0,0,1,84.83,114.17Z"/></g><g class="cls-14"><path class="cls-3" d="M20.34,152.93a.23.23,0,0,1-.17-.07.25.25,0,0,1,0-.34,14.39,14.39,0,0,1,8.47-3.34,9.6,9.6,0,0,0-6.81-.16.24.24,0,1,1-.15-.45,9.65,9.65,0,0,1,8,.61l.66.42h-.78a14.23,14.23,0,0,0-9.07,3.26A.27.27,0,0,1,20.34,152.93Z"/></g><path class="cls-13" d="M30,143.45c-.18,1.49-.34,2.87-.42,4.09a48.67,48.67,0,0,1-1.35-9.62A46.69,46.69,0,0,0,20,114.5c.22.26,7.73,9.09,8.81,17.48C29.29,135.39,29.74,139.36,30,143.45Z"/><path class="cls-11" d="M37.44,92.15s-1.27-9.58,7.33-11.49l-.66,10.85Z"/><path class="cls-9" d="M39.78,95.82l-.2,0h-.31a2.46,2.46,0,0,1-.47-.1l-.08,0c-1.78-.64-3.09-3.5-2-4.47a1.27,1.27,0,0,1,.68-.35h.06a1.26,1.26,0,0,1,.74.13,2.92,2.92,0,0,1,1,.82.28.28,0,0,1,0,.07V92l.06.36Z"/><path class="cls-10" d="M39.78,95.82l-.2,0h-.31a2.46,2.46,0,0,1-.47-.1l-.09-.2a13.46,13.46,0,0,1-1.08-3.41c-.1-.5-.16-.93-.2-1.25a1.26,1.26,0,0,1,.74.13,2.92,2.92,0,0,1,1,.82.28.28,0,0,1,0,.07V92l.06.36Z"/><path class="cls-9" d="M51.74,105.44a29.08,29.08,0,0,1-1.26,8c-6.09-2.62-10.7-9.14-10.7-9.14l1.45-.33.39-2.3v0l.46-3.51,7.72,1.09.7,3.89h1.15C51.73,103.86,51.75,104.66,51.74,105.44Z"/><path class="cls-10" d="M51.74,105.44a17.11,17.11,0,0,1-10.12-3.82v0l.46-3.51,7.72,1.09.7,3.89h1.15C51.73,103.86,51.75,104.66,51.74,105.44Z"/><path class="cls-9" d="M55.73,92.34c.07,4.58-2.16,8.52-5.34,10h0a6.75,6.75,0,0,1-2.81.67,7.46,7.46,0,0,1-5.77-2.85,9.65,9.65,0,0,1-.76-1,11.6,11.6,0,0,1-1-1.92,12.43,12.43,0,0,1-.47-1.42,13.11,13.11,0,0,1-.45-3.17v-.09c0-.2,0-.39,0-.59,0,0,0-.1,0-.15a11.76,11.76,0,0,1,2.71-7.27l.09-.11a8,8,0,0,1,2.72-2,6.8,6.8,0,0,1,2.61-.58,7.41,7.41,0,0,1,5.66,2.71,11.77,11.77,0,0,1,2.43,4.84A12.62,12.62,0,0,1,55.73,92.34Z"/><path class="cls-10" d="M55.36,89.42c-6.83,1.28-13.22-2.21-13.22-2.21l-.3-2.64v-.11h.1l11,.12A11.14,11.14,0,0,1,55.36,89.42Z"/><path class="cls-11" d="M54.9,87.93a22.5,22.5,0,0,1-7,.06h0a13.52,13.52,0,0,1-3.54-.53,8.87,8.87,0,0,1-1-.36,3.09,3.09,0,0,1-.29.54,4.81,4.81,0,0,1-2.63,1.68s0,.31,0,.78a13.73,13.73,0,0,0,0,1.77c0,.13,0,.28.05.41A13.2,13.2,0,0,0,42,96l-2,1.3-.12.09a8.81,8.81,0,0,1-.66-1.5c-.22-.65-.43-1.35-.59-1.93-.21-.76-.35-1.33-.35-1.33,0-.17,0-.34-.07-.52a9.3,9.3,0,0,1-.09-1c-.22-5.28,2.77-9.22,6.6-10.35a7.92,7.92,0,0,1,2.7-.33h.05c3.28-.11,6.5.61,7.6,2.31.94,1.43.5,2.11.5,2.11S58.23,87.1,54.9,87.93Z"/><rect class="cls-6" x="117.2" y="50.23" width="40.13" height="40.12"/><path class="cls-3" d="M157.33,70.14V90.35H117.2V73.15c5.76-5.71,13.06-12.77,13.06-12.77l13.15,13.16,8.66-8.66Z"/><circle class="cls-3" cx="144.74" cy="59.01" r="3.41"/><path class="cls-2" d="M336.79,265.43c0,3-20.27,5.37-45.29,5.37s-45.3-2.4-45.3-5.37,20.28-5.36,45.3-5.36S336.79,262.47,336.79,265.43Z"/><path class="cls-6" d="M205.81,44.27h-3.29a4.11,4.11,0,0,1-4.1-4.1v-35a4.1,4.1,0,0,1,4.1-4.1h42.25a4.09,4.09,0,0,1,4.1,4.1v35a4.1,4.1,0,0,1-4.1,4.1h-39Z"/><path class="cls-8" d="M244.77,1H202.52a4.1,4.1,0,0,0-4.1,4.1V8.41h50.45V5.13A4.09,4.09,0,0,0,244.77,1Z"/><rect class="cls-8" x="203.14" y="40.2" width="6.56" height="11.28"/><rect class="cls-8" x="226.11" y="37.53" width="6.56" height="13.95"/><rect class="cls-8" x="214.62" y="28.86" width="6.56" height="22.62"/><rect class="cls-8" x="237.59" y="27.33" width="6.56" height="24.15"/><circle class="cls-6" cx="240.87" cy="17.63" r="2.67"/><path class="cls-3" d="M246.32,45.17a3.59,3.59,0,0,0,3.58-3.58V5.13A5.13,5.13,0,0,0,244.77,0H202.52a5.13,5.13,0,0,0-5.12,5.13V41.59A3.58,3.58,0,0,0,201,45.17h1.13v5.28h-3.69a1,1,0,0,0,0,2h50.45a1,1,0,1,0,0-2h-3.69V45.17ZM202.52,2.05h42.25a3.08,3.08,0,0,1,3.08,3.08V7.38h-48.4V5.13A3.08,3.08,0,0,1,202.52,2.05Zm1.64,48.4V41.22h4.52v9.23Zm11.49,0V29.88h4.51V50.45Zm11.48,0V38.55h4.52v11.9Zm11.49,0V39.4a1,1,0,0,0-2.05,0V50.45H233.7V37.53a1,1,0,0,0-1-1h-6.56a1,1,0,0,0-1,1V50.45h-2.87V28.86a1,1,0,0,0-1-1h-6.57a1,1,0,0,0-1,1V50.45h-2.87V40.2a1,1,0,0,0-1-1h-6.56a1,1,0,0,0-1,1v2.92H201a1.53,1.53,0,0,1-1.53-1.53V9.43h48.4V41.59a1.54,1.54,0,0,1-1.53,1.53h-1.14V27.33a1,1,0,0,0-1-1h-6.57a1,1,0,0,0-1,1V32.5a1,1,0,1,0,2.05,0V28.35h4.51v22.1Z"/><path class="cls-6" d="M220.17,5.74h23.16a1,1,0,1,0,0-2.05H220.17a1,1,0,1,0,0,2.05Z"/><path class="cls-6" d="M208.06,5.74a1,1,0,0,0,.73-.3,1,1,0,0,0,.3-.72,1,1,0,0,0-1-1,1,1,0,0,0-.72.3,1,1,0,0,0-.3.73,1,1,0,0,0,1,1Z"/><path class="cls-6" d="M204,5.74a1,1,0,0,0,.72-.3,1,1,0,0,0,.31-.72,1,1,0,0,0-1-1,1.06,1.06,0,0,0-.73.3,1,1,0,0,0-.3.73,1,1,0,0,0,.3.72A1.06,1.06,0,0,0,204,5.74Z"/><path class="cls-6" d="M212.16,5.74a1,1,0,0,0,.73-.3,1,1,0,0,0,.3-.72,1,1,0,0,0-1-1,1,1,0,0,0-.72.3,1,1,0,0,0-.3.73,1,1,0,0,0,1,1Z"/><path class="cls-8" d="M240.87,21.32a3.69,3.69,0,1,0-3.69-3.69,3.64,3.64,0,0,0,.71,2.17l-6.81,6.81a3.61,3.61,0,0,0-1.79-.46,3.67,3.67,0,0,0-1.62.37l-7.11-7.11a3.69,3.69,0,1,0-6.37.16l-6.06,6.06a3.55,3.55,0,0,0-1.78-.46A3.69,3.69,0,1,0,210,28.86a3.55,3.55,0,0,0-.46-1.78L215.71,21a3.67,3.67,0,0,0,1.62.37,3.71,3.71,0,0,0,1.78-.46l7,7a3.7,3.7,0,1,0,6.38.16l7-7A3.6,3.6,0,0,0,240.87,21.32Zm0-5.33a1.64,1.64,0,1,1-1.64,1.64A1.64,1.64,0,0,1,240.87,16ZM206.35,30.5A1.64,1.64,0,1,1,208,28.86,1.65,1.65,0,0,1,206.35,30.5Zm11-11.23A1.64,1.64,0,1,1,219,17.63,1.63,1.63,0,0,1,217.33,19.27Zm12,12.21a1.64,1.64,0,1,1,1.65-1.64A1.65,1.65,0,0,1,229.29,31.48Z"/><path class="cls-8" d="M211.88,15a1,1,0,0,0,.73-.3,1,1,0,0,0,.3-.72,1,1,0,0,0-1-1,1,1,0,0,0-.72.3,1,1,0,0,0-.3.73,1,1,0,0,0,1,1Z"/><path class="cls-8" d="M203.14,15h4.92a1,1,0,1,0,0-2.05h-4.92a1,1,0,1,0,0,2.05Z"/><path class="cls-8" d="M208.06,19.89a1,1,0,1,0,0-2.05h-4.92a1,1,0,1,0,0,2.05Z"/><polygon class="cls-9" points="296.49 97.84 297.15 101.94 306.3 96.68 306.23 94.36 306.23 90.94 298.69 91 296.87 96.67 296.49 97.84"/><path class="cls-10" d="M297.08,96a11.8,11.8,0,0,0,9.15-1.63V90.94l-7.54.06-1.61,5Z"/><path class="cls-9" d="M293.9,83.7c-.65,4.38,1,8.44,3.82,10.3h0a6.5,6.5,0,0,0,2.6,1,7.87,7.87,0,0,0,6.75-2.87,10.61,10.61,0,0,0,1.21-1.7,11.15,11.15,0,0,0,.63-1.3,12.5,12.5,0,0,0,.84-3s0-.06,0-.09c0-.19.05-.37.07-.56s0-.09,0-.14A11.36,11.36,0,0,0,308.2,78l-.07-.11a7.72,7.72,0,0,0-2.35-2.28,6.3,6.3,0,0,0-2.43-.89,7.15,7.15,0,0,0-5.77,1.87,10.54,10.54,0,0,0-2.32,3,10.65,10.65,0,0,0-.63,1.37A12.77,12.77,0,0,0,293.9,83.7Z"/><path class="cls-10" d="M294.63,81c6.38,2.1,12.95-.42,12.95-.42L308.2,78l0-.1h-.1l-10.55-1.3A10.8,10.8,0,0,0,294.63,81Z"/><path class="cls-15" d="M295.33,79.46a7.29,7.29,0,0,0,2.3.71c.66.11,1.32.18,2,.24.43,0,2,.38,2.35.13h0a13.23,13.23,0,0,0,3.46-.05,9.62,9.62,0,0,0,1-.21,3.62,3.62,0,0,0,.2.55,4.67,4.67,0,0,0,2.31,2s0,.3-.06.75a13.5,13.5,0,0,1-.27,1.69c0,.13-.06.26-.1.39a12.92,12.92,0,0,1-2,3.32l1.7,1.5.11.1a8.32,8.32,0,0,0,.82-1.36c.29-.58.58-1.23.82-1.77.3-.7.5-1.22.5-1.22,0-.16.09-.33.13-.49a9,9,0,0,0,.22-1c.59-3.3-.21-7.2-2.95-9.34s-6.06-3.69-9.79-2.89a6.07,6.07,0,0,0-2,.75,5.76,5.76,0,0,0-1.38,1.32c-.89,1.17-1.38,2.9-.49,4.08A3.21,3.21,0,0,0,295.33,79.46Z"/><path class="cls-9" d="M313.41,254.93l-2.62,1.92-6.17.91-3.53-3.43.41-1.33a7.44,7.44,0,0,0,1.75-1.92,6,6,0,0,0,.15-1.65c0-2.07-.15-5.26-.15-5.26h9s-.2,4.23-.05,6.56c0,.21,0,.4.05.58A9.08,9.08,0,0,0,313.41,254.93Z"/><path class="cls-10" d="M312.17,250.73a18.41,18.41,0,0,1-8.77-1.3c0-2.07-.15-5.26-.15-5.26h9S312,248.4,312.17,250.73Z"/><path class="cls-11" d="M314.61,264.84c-.17.8-2.28,1.09-5.08,1.09a49.42,49.42,0,0,1-5.15-.5c-3.37-.44-7.28-1-9.24-1.22-3.2-.28-6.7-.62-6.7-.62a3.67,3.67,0,0,1-.95-2.38c0-1,.59-2.07,2.46-3,4.13-2.17,8.55-3.21,10.95-5a5.66,5.66,0,0,0,.52-.43,3.49,3.49,0,0,0,2.46,2.68,9,9,0,0,0,5.54-1c1.37-.63,3-.78,3.54-.3s1.65,4.3,1.65,6.18c0,.22,0,.45,0,.67A24.72,24.72,0,0,1,314.61,264.84Z"/><path class="cls-8" d="M314.61,264.84c-.17.8-2.28,1.09-5.08,1.09s-11.19-1.43-14.39-1.72-6.7-.62-6.7-.62a3.67,3.67,0,0,1-.95-2.38c3.31,0,8.79.09,12.05.09,4.91,0,7.37.57,10.62.4a23,23,0,0,0,4.46-.7A24.72,24.72,0,0,1,314.61,264.84Z"/><path class="cls-12" d="M304.38,265.43c-3.37-.44-7.28-1-9.24-1.22-3.2-.28-6.7-.62-6.7-.62a3.67,3.67,0,0,1-.95-2.38c0-1,.59-2.07,2.46-3,4.13-2.17,8.55-3.21,10.95-5a6.91,6.91,0,0,0,1,3.16c1.26,1.83,2.51,4.34,2.46,6.4C304.31,263.59,304.35,264.58,304.38,265.43Z"/><path class="cls-9" d="M300.19,247.14V255l-.42,1s-2.46,2.45-4.57,3-7.72-1-7.72-1v-2.74s2.87-2.35,3-3a7.62,7.62,0,0,0,.07-1.13c0-1.64-.07-4.35-.07-4.35Z"/><path class="cls-10" d="M300.19,247.14v5.16c-3.26.6-7-.28-9.6-1.15,0-1.64-.07-4.35-.07-4.35Z"/><path class="cls-9" d="M252.08,50.08c-.33,0-.62-.37-.94-.66a17.19,17.19,0,0,1-1.48-1.25,22,22,0,0,1-2.42-3.79,4.06,4.06,0,0,0-1.47-1.65,1.5,1.5,0,0,0-2,.44c-.1.2-.16.46-.36.57s-.53,0-.8-.07a1.31,1.31,0,0,0-1.21.45c-.38.43,0,1.39-.51,1.65-.17.09-.38,0-.56.09-1,.28-.86,3-.8,3.67a10.91,10.91,0,0,0,.4,2.27,10.71,10.71,0,0,0,1,2.34,9.85,9.85,0,0,0,1.74,2.37c.84.83,1.72,1.6,2.58,2.41.39.38.77.78,1.17,1.15a5.21,5.21,0,0,0,1.1.81,4.37,4.37,0,0,0,3.34.36c1.53-.45,3.15-1.89,2.73-3.59a8.43,8.43,0,0,1-.24-2.83,1.79,1.79,0,0,1,0-.23c.11-.86.51-1.62.61-2.45a5.55,5.55,0,0,0-.2-2.06Z"/><path class="cls-10" d="M250.88,61.24a4.37,4.37,0,0,1-3.34-.36,5.21,5.21,0,0,1-1.1-.81c1.33-1.62,3.91-4.3,6.93-5.25a8.43,8.43,0,0,0,.24,2.83C254,59.35,252.41,60.79,250.88,61.24Z"/><path class="cls-5" d="M293.94,96.27S280,109.18,279.9,109a47.53,47.53,0,0,0-2.68-6.16,45.22,45.22,0,0,0-5-7.66c-5.36-6.63-8.11-11.31-12.1-15.08-2.89-2.72-7.57-9.43-10.89-14.33-1.27-1.88-2.35-3.5-3.05-4.51,0,0,4.69-3.88,8-4.23l3.4,3.85c4,4.6,10.56,12.06,12.93,15.11,3.16,4.08,15.87,13.43,21.65,18.64C292.88,95.21,293.47,95.78,293.94,96.27Z"/><path class="cls-13" d="M293.94,96.27S280,109.18,279.9,109a47.53,47.53,0,0,0-2.68-6.16c2.7-2.86,8-7.38,15-8.21C292.88,95.21,293.47,95.78,293.94,96.27Z"/><path class="cls-3" d="M316.94,176.75a363.05,363.05,0,0,0-1.85,37.16c0,7.61,1.69,20.25.78,33.65,0,0-3.83,1.32-11.38.45-1-.11-2-.26-3.08-.45,0,0-.16-18.88-1.83-29.85s.61-35.78,0-41.57c-.16-1.45-.39-3.58-.65-6-.4-3.67-.87-7.93-1.23-11.19-.34-3-.58-5.19-.58-5.19L313,156.19a21,21,0,0,1,3,6.83A36.1,36.1,0,0,1,316.94,176.75Z"/><path class="cls-12" d="M302.62,180.56s.8,17.81.8,28.43c0,9,.82,32.09,1.07,39-1-.11-2-.26-3.08-.45,0,0-.16-18.88-1.83-29.85s.61-35.78,0-41.57c-.16-1.45-.39-3.58-.65-6,3.82-3.65,8.23-7.78,8.23-7.78a14.4,14.4,0,0,1-.59,11.42C303.65,180.21,302.62,180.56,302.62,180.56Z"/><path class="cls-12" d="M316,163a152.06,152.06,0,0,1-15.23-3.31c-1.06-.28-2.09-.51-3.1-.72-.34-3-.58-5.19-.58-5.19L313,156.19A21,21,0,0,1,316,163Z"/><path class="cls-3" d="M301.41,203.37c1.21,14.14,1.67,45.94,1.67,45.94a22.84,22.84,0,0,1-15.84,0s-1.22-10.89-1.67-19.87-4.72-16.3-8.23-39.59c-2.33-15.54-1.55-25.71-.78-30.76a30.8,30.8,0,0,1,.78-3.76c10.66-4.53,28.48,0,28.48,0a21.55,21.55,0,0,1,1.84,6.06C309.17,172.09,301,179,301,179A168.2,168.2,0,0,0,301.41,203.37Z"/><path class="cls-12" d="M307.66,161.39c-2-.46-4.32-1-6.86-1.68a50.35,50.35,0,0,0-24.24-.62,30.8,30.8,0,0,1,.78-3.76c10.66-4.53,28.48,0,28.48,0A21.55,21.55,0,0,1,307.66,161.39Z"/><path class="cls-5" d="M292.57,95.13a49.9,49.9,0,0,1,7,.76c4.72.76,8.83,1.22,10.66,2.44s11.42,5.94,11.87,9.29-1.82,10.81-4.87,13.55-6.85,12.33-7.61,17.21,5.78,16.93,5.63,21.33c0,0-27.1-7-40.05-.93,0,0,2.74-15.23,3.05-21.32s.76-6.7-.61-14-.76-13.7,1.67-17.66S287.55,95.43,292.57,95.13Z"/><g class="cls-14"><path class="cls-3" d="M312.71,145.21l-1.91-.16c-.1,0-10.14-.86-16.17-4.38a.23.23,0,0,1-.08-.32.23.23,0,0,1,.31-.08c4.45,2.6,11.14,3.73,14.26,4.14-7.54-3.4-16.17-12.94-16.26-13a.23.23,0,1,1,.34-.3c.1.11,9.93,11,17.69,13.54Z"/></g><path class="cls-9" d="M316.45,151.26a3.33,3.33,0,0,1-.77,1.32,4.48,4.48,0,0,1-1.27,1,5.36,5.36,0,0,1-.54.26c-.39-1.18-1.4-3.88-1.4-3.88-.67-.45-1.3-.95-1.92-1.46a17.81,17.81,0,0,1-1.42-1.46c-.38-.41-2.23-3.19-.87-3.27a1,1,0,0,1,.47.13l2.09,1a6.65,6.65,0,0,0,.92.32,8.33,8.33,0,0,1,1.28.42,4.25,4.25,0,0,1,1.29.93,7.22,7.22,0,0,1,.5.6,12.69,12.69,0,0,1,1.15,2.07A3.32,3.32,0,0,1,316.45,151.26Z"/><path class="cls-10" d="M316.45,151.26a3.33,3.33,0,0,1-.77,1.32,4.48,4.48,0,0,1-1.27,1,29.11,29.11,0,0,1-2.67-8.39,8.33,8.33,0,0,1,1.28.42,4.25,4.25,0,0,1,1.29.93,7.22,7.22,0,0,1,.5.6,12.69,12.69,0,0,1,1.15,2.07A3.32,3.32,0,0,1,316.45,151.26Z"/><path class="cls-5" d="M333.57,138.64c-2.05,2.41-7.56,6.93-12.32,10.65-2,1.59-3.91,3-5.34,4.11-2-2.42-3.21-6.39-3.73-8.47a26.31,26.31,0,0,0,5-3.32l0,0c2.23-2.09,7.55-9.22,7.55-9.22s-3.87-4.41-6.78-8.17c-.58-.75-1.12-1.47-1.59-2.13a7.28,7.28,0,0,1,.83-.89c3.05-2.74,5.33-10.2,4.87-13.55a3.27,3.27,0,0,0-.69-1.49s.55.58,1.43,1.58c2.81,3.2,9,10.63,11.64,16.54C337.91,132,337.46,134.07,333.57,138.64Z"/><path class="cls-13" d="M318,124.19c-.58-.75-1.12-1.47-1.59-2.13a7.28,7.28,0,0,1,.83-.89c3.05-2.74,5.33-10.2,4.87-13.55a3.27,3.27,0,0,0-.69-1.49s.55.58,1.43,1.58C323.56,111.49,323.5,117.79,318,124.19Z"/><g class="cls-14"><path class="cls-3" d="M329.19,133.73a.22.22,0,0,1-.14,0,6.41,6.41,0,0,0-4.24-1.09l-1.18.14,1-.57a15.18,15.18,0,0,1,5.34-1.7.23.23,0,0,1,.25.21.22.22,0,0,1-.21.24,15.27,15.27,0,0,0-4.26,1.2,6.37,6.37,0,0,1,3.55,1.21.22.22,0,0,1,0,.32A.21.21,0,0,1,329.19,133.73Z"/></g><path class="cls-8" d="M321.25,149.29c-2,1.59-3.91,3-5.34,4.11-2-2.42-3.21-6.39-3.73-8.47a26.31,26.31,0,0,0,5-3.32l0,0A24.28,24.28,0,0,0,321.25,149.29Z"/><path class="cls-8" d="M257.6,60.83a25.84,25.84,0,0,0-8.35,4.89c-1.27-1.88-2.35-3.5-3.05-4.51,0,0,4.69-3.88,8-4.23Z"/><path class="cls-11" d="M302.32,265.22c-.08,1.68-1.14,1.68-3.39,1.68s-8.57-.16-16.26-.46-8.07-2.89-8.07-2.89a6.09,6.09,0,0,1,.31-3.2c.61-1.9,1.52-2,6.17-2.59s8.1-4.86,8-4.57c-.88,2.38-.08,2.59-.08,2.59a8.33,8.33,0,0,0,7.08.61c2.9-1,4.12-1.37,4.12-1.37s1.14,3,1.75,5a9.74,9.74,0,0,1,.43,2.41A25.33,25.33,0,0,1,302.32,265.22Z"/><path class="cls-8" d="M302.32,265.22c-.08,1.68-1.14,1.68-3.39,1.68s-8.57-.16-16.26-.46-8.07-2.89-8.07-2.89a5.17,5.17,0,0,1,.06-2.37c.84.87,2.51,1.94,5.69,2,5.37.11,9.42-.4,13-.46,2.93-.05,6.89.4,9-.27A25.33,25.33,0,0,1,302.32,265.22Z"/><g class="cls-14"><path class="cls-3" d="M267.52,80.89h-.07a.23.23,0,0,1-.14-.29,7.07,7.07,0,0,1,3-3.78,11.93,11.93,0,0,0-6.21,2.13.23.23,0,0,1-.32,0,.23.23,0,0,1,.05-.32,11.55,11.55,0,0,1,7.32-2.18l.87.09-.81.34a6.91,6.91,0,0,0-3.45,3.9A.22.22,0,0,1,267.52,80.89Z"/></g><path class="cls-15" d="M299.12,81.82c-.48.77-1.19,1.71-.71,2.49.57-.06,1-.5,1.6-.61a1.78,1.78,0,0,1,1.85,2.2,2.56,2.56,0,0,1-2.68,1.7,1.62,1.62,0,0,0-.82,0c-.39.17-.52.64-.61,1-.36,1.73-.68,3.47-.94,5.22a18.83,18.83,0,0,0,0,7.91,10,10,0,0,0,6.61,6.81,9,9,0,0,0,9.05-2.53,8.13,8.13,0,0,0,1-9.23,8.86,8.86,0,0,1-1-1.79c-.44-1.47.4-3,1-4.4a13.79,13.79,0,0,0-1.33-12.91,12.89,12.89,0,0,0-11.7-5.42c-2.06.22-3.35,2.46-1.79,4.2A4,4,0,0,1,299.12,81.82Z"/><path class="cls-3" d="M260.73,186v28.15a4.58,4.58,0,0,1-4.59,4.58H209.59a2.8,2.8,0,0,1-.5,0,4.58,4.58,0,0,1-4.09-4.55V175.61a3,3,0,0,1,3-3h24a3,3,0,0,1,2.78,1.84l1.81,4.32a4.34,4.34,0,0,0,4,2.66h15.52A4.58,4.58,0,0,1,260.73,186Z"/><path class="cls-5" d="M260.73,186v2.56H205v-13a3,3,0,0,1,3-3h24a3,3,0,0,1,2.77,1.84l1.82,4.32a4.34,4.34,0,0,0,4,2.66h15.53A4.58,4.58,0,0,1,260.73,186Z"/><path class="cls-6" d="M212.64,179.18a1.32,1.32,0,1,1-1.32-1.32A1.32,1.32,0,0,1,212.64,179.18Z"/><path class="cls-6" d="M218.11,179.18a1.32,1.32,0,1,1-1.32-1.32A1.32,1.32,0,0,1,218.11,179.18Z"/><path class="cls-6" d="M223.58,179.18a1.33,1.33,0,1,1-1.33-1.32A1.33,1.33,0,0,1,223.58,179.18Z"/><path class="cls-6" d="M229,179.18a1.32,1.32,0,1,1-1.32-1.32A1.32,1.32,0,0,1,229,179.18Z"/><rect class="cls-8" x="59.32" y="16.41" width="44.33" height="30.98" rx="2.72"/><path class="cls-6" d="M75.36,30.27,70.8,32.42l4.56,2.14V37.4L68.72,34V30.8l6.64-3.37Z"/><path class="cls-6" d="M85.53,23.63,80.79,40.19H78.08l4.74-16.56Z"/><path class="cls-6" d="M87.62,34.38l4.56-2.15-4.56-2.14V27.25l6.64,3.36v3.24l-6.64,3.37Z"/></g></g></g></svg>